<svg xmlns="http://www.w3.org/2000/svg" width="110" height="63" viewBox="0 0 110 63"><path fill="#fff" d="M13.30 61.90L13.30 61.90Q11.40 61.90 10.15 60.70Q8.90 59.50 8.90 57.50L8.90 57.50L8.90 1.30Q9.40 1.10 10.45 0.85Q11.50 0.60 12.70 0.60L12.70 0.60Q17.10 0.60 17.10 4.30L17.10 4.30L17.10 54.90L45.80 54.90Q46.90 56.00 46.90 58.20L46.90 58.20Q46.90 59.90 46 60.90Q45.10 61.90 43.60 61.90L43.60 61.90L13.30 61.90ZM101.60 30.80L101.60 30.80Q101.60 24.40 99.65 19.85Q97.70 15.30 94.35 12.40Q91 9.50 86.55 8.15Q82.10 6.80 77 6.80L77 6.80Q73.80 6.80 71.45 7Q69.10 7.20 67.10 7.60L67.10 7.60L67.10 55.20Q69.50 55.80 72.25 56.00Q75 56.20 77.90 56.20L77.90 56.20Q89.70 56.20 95.65 49.80Q101.60 43.40 101.60 30.80ZM109.90 30.80L109.90 30.80Q109.90 39 107.65 45.05Q105.40 51.10 101.25 55.10Q97.10 59.10 91.20 61.05Q85.30 63.00 78 63.00L78 63.00Q74.80 63.00 70.80 62.75Q66.80 62.50 63.20 61.40L63.20 61.40Q59 60.10 59 56.80L59 56.80L59 5.40Q59 3.80 59.80 2.95Q60.60 2.10 62.30 1.60L62.30 1.60Q65.40 0.60 69.30 0.30Q73.20 0 77.10 0L77.10 0Q84.40 0 90.45 1.95Q96.50 3.90 100.80 7.75Q105.10 11.60 107.50 17.35Q109.90 23.10 109.90 30.80Z"></path></svg>